<svg width="52" height="49" viewBox="0 0 52 49" fill="none" xmlns="http://www.w3.org/2000/svg">
<path d="M1 48.0588H23.0588M28.9412 48.0588H51" stroke="#0086FE" stroke-linecap="round"/>
<path d="M2.47058 42.1765L23.0588 42.1765M28.9412 42.1765L49.5294 42.1765" stroke="#0086FE" stroke-linecap="round"/>
<path d="M3.94116 36.2941H23.0588M28.9412 36.2941H48.0588" stroke="#0086FE" stroke-linecap="round"/>
<path d="M5.41174 30.4117H23.0588M28.9412 30.4117H46.5882" stroke="#0086FE" stroke-linecap="round"/>
<path d="M6.88232 24.5294L23.0588 24.5294M28.9411 24.5294H43.647" stroke="#0086FE" stroke-linecap="round"/>
<path d="M9.82355 18.647H23.0588M28.9412 18.647H42.1765" stroke="#0086FE" stroke-linecap="round"/>
<path d="M11.2941 12.7647L23.0588 12.7647M28.9412 12.7647L37.7647 12.7647" stroke="#0086FE" stroke-linecap="round"/>
<path d="M12.7647 6.88232H23.0588M28.9412 6.88232H34.8235" stroke="#0086FE" stroke-linecap="round"/>
<path d="M17.1765 1H23.0588M28.9412 1H33.3529" stroke="#0086FE" stroke-linecap="round"/>
</svg>
