<svg width="50" height="50" viewBox="0 0 50 50" fill="none" xmlns="http://www.w3.org/2000/svg">
<circle cx="25" cy="25" r="24.5" stroke="#0086FE"/>
<path d="M25 10.4861V1.25C28.1189 1.25 31.2072 1.86431 34.0887 3.05786C35.5195 3.65051 36.8854 4.38022 38.168 5.23474M25 10.4861L32.4282 3.05786M25 10.4861V18.4028M25 18.4028V25H26.3194M25 18.4028L38.168 5.23474M38.168 5.23474C39.4685 6.10116 40.6835 7.0959 41.7938 8.20621C43.9992 10.4116 45.7486 13.0298 46.9421 15.9113C48.1357 18.7928 48.75 21.8811 48.75 25H41.25M26.3194 25L41.7938 9.52566M26.3194 25L33.75 25M33.75 25L45 13.75M33.75 25L41.25 25M41.25 25L47.5 18.75" stroke="#0086FE"/>
</svg>
